<svg width="24" height="24" viewBox="0 0 24 24" fill="none" xmlns="http://www.w3.org/2000/svg">
    <path d="M18.505 19H20c1.105 0 2.067-.924 1.716-1.971-.535-1.597-1.85-2.562-4.163-2.896M14.5 10.865a3.32 3.32 0 0 0 1 .135c1.667 0 2.5-.857 2.5-3s-.833-3-2.5-3a3.32 3.32 0 0 0-1 .136M9.5 14c3.614 0 5.54 1.01 6.216 3.029C16.066 18.076 15.105 19 14 19H5c-1.105 0-2.067-.924-1.716-1.971C3.96 15.009 5.887 14 9.5 14zm0-3c1.667 0 2.5-.857 2.5-3s-.833-3-2.5-3S7 5.857 7 8s.833 3 2.5 3z" stroke="#222" stroke-width="1.5" stroke-linecap="round" stroke-linejoin="round"/>
</svg>
