<svg width="24" height="25" viewBox="0 0 24 25" fill="none" xmlns="http://www.w3.org/2000/svg">
<path d="M5 12.5H3L12 3.5L21 12.5H19" stroke="white" stroke-width="1.5" stroke-linecap="round" stroke-linejoin="round"/>
<path d="M13.5 14.5C13.5 15.3284 12.8285 16 12 16C11.1716 16 10.5 15.3284 10.5 14.5C10.5 13.6716 11.1716 13 12 13C12.8285 13 13.5 13.6716 13.5 14.5Z" stroke="white" stroke-width="1.5" stroke-linecap="round" stroke-linejoin="round"/>
<path d="M5 12.5V19.5C5 20.0304 5.21071 20.5391 5.58579 20.9142C5.96086 21.2893 6.46957 21.5 7 21.5H17C17.5304 21.5 18.0391 21.2893 18.4142 20.9142C18.7893 20.5391 19 20.0304 19 19.5V12.5" stroke="white" stroke-width="1.5" stroke-linecap="round" stroke-linejoin="round"/>
</svg>
