<svg width="24" height="24" viewBox="0 0 24 24" fill="none" xmlns="http://www.w3.org/2000/svg">
<path d="M18 11V14C18.08 14.62 18.3 15.22 18.64 15.74C18.99 16.26 19.45 16.69 20 17H4C4.54 16.69 5.01 16.26 5.36 15.74C5.71 15.22 5.93 14.62 6 14V11C6.06 9.73 6.46 8.5 7.17 7.45C7.87 6.39 8.85 5.55 10 5C10 4.47 10.21 3.96 10.59 3.59C10.97 3.21 11.47 3 12 3C12.53 3 13.04 3.21 13.41 3.59C13.79 3.97 14 4.47 14 5" stroke="white" stroke-width="1.5" stroke-linecap="round" stroke-linejoin="round"/>
<path d="M9 17V18C9 18.8 9.32 19.56 9.88 20.12C10.44 20.68 11.21 21 12 21C12.79 21 13.56 20.68 14.12 20.12C14.68 19.56 15 18.79 15 18V17" stroke="white" stroke-width="1.5" stroke-linecap="round" stroke-linejoin="round"/>
<path d="M17.3302 9.64078C18.8048 9.64078 20.0002 8.44538 20.0002 6.97078C20.0002 5.49618 18.8048 4.30078 17.3302 4.30078C15.8556 4.30078 14.6602 5.49618 14.6602 6.97078C14.6602 8.44538 15.8556 9.64078 17.3302 9.64078Z" fill="#60A5FA"/>
</svg>
