<svg width="16" height="16" viewBox="0 0 16 16" fill="none" xmlns="http://www.w3.org/2000/svg">
    <g clip-path="url(#5veq0j5wxa)">
        <path d="M.668 3.333c0-.369.298-.667.667-.667h13.333c.368 0 .667.299.667.667v9.333a.667.667 0 0 1-.667.667H1.335a.667.667 0 0 1-.667-.667V3.333zm8 2v1.333h4V5.333h-4zm3.333 2.666H8.668v1.334h3.333V7.999zm-5-1.333a1.667 1.667 0 1 0-3.333 0 1.667 1.667 0 0 0 3.333 0zM5.335 8.999A2.333 2.333 0 0 0 3 11.333h4.667a2.333 2.333 0 0 0-2.333-2.334z" fill="#93C5FD"/>
    </g>
    <defs>
        <clipPath id="5veq0j5wxa">
            <path fill="#fff" d="M0 0h16v16H0z"/>
        </clipPath>
    </defs>
</svg>
