<svg width="54" height="48" viewBox="0 0 54 48" fill="none" xmlns="http://www.w3.org/2000/svg">
<path d="M0.5 24C0.5 11.0213 11.0213 0.5 24 0.5H53.5V47.5H24C11.0213 47.5 0.5 36.9787 0.5 24Z" fill="#0D0D0D" fill-opacity="0.8"/>
<path d="M0.5 24C0.5 11.0213 11.0213 0.5 24 0.5H53.5V47.5H24C11.0213 47.5 0.5 36.9787 0.5 24Z" stroke="#93C5FD"/>
<path d="M27.0059 16.2812H19.0841" stroke="#60A5FA" stroke-width="1.5" stroke-linecap="round" stroke-linejoin="round"/>
<path d="M27.0059 22.2812H19.0841" stroke="#60A5FA" stroke-width="1.5" stroke-linecap="round" stroke-linejoin="round"/>
<path d="M36.916 27.2812H19.0827" stroke="#60A5FA" stroke-width="1.5" stroke-linecap="round" stroke-linejoin="round"/>
<path d="M36.916 32.7617H19.0827" stroke="#60A5FA" stroke-width="1.5" stroke-linecap="round" stroke-linejoin="round"/>
<path d="M36.4101 19.4297C36.6669 19.6299 36.6669 20.0182 36.4101 20.2184L31.84 23.7805C31.5116 24.0364 31.0326 23.8024 31.0326 23.3861L31.0326 16.2619C31.0326 15.8456 31.5116 15.6117 31.84 15.8676L36.4101 19.4297Z" fill="#60A5FA"/>
</svg>
