<svg width="147" height="31" viewBox="0 0 147 31" fill="none" xmlns="http://www.w3.org/2000/svg">
<g clip-path="url(#clip0_218_1987)">
<path d="M20.3662 8.17847C19.9706 9.03699 19.75 9.99273 19.75 11C19.75 14.728 22.772 17.75 26.5 17.75C27.5072 17.75 28.463 17.5294 29.3215 17.1338C28.5758 20.4903 25.581 23 22 23C17.8579 23 14.5 19.6421 14.5 15.5C14.5 11.919 17.0097 8.92416 20.3662 8.17847ZM26.6231 8.21828L27.25 8.375V9.125L26.6231 9.28172C26.0857 9.41607 25.6661 9.8357 25.5317 10.3731L25.375 11H24.625L24.4683 10.3731C24.3339 9.8357 23.9143 9.41607 23.3769 9.28172L22.75 9.125V8.375L23.3769 8.21828C23.9143 8.08393 24.3339 7.6643 24.4683 7.12687L24.625 6.5H25.375L25.5317 7.12687C25.6661 7.6643 26.0857 8.08393 26.6231 8.21828ZM30.3731 11.9683L31 12.125V12.875L30.3731 13.0317C29.8357 13.1661 29.4161 13.5857 29.2817 14.1231L29.125 14.75H28.375L28.2183 14.1231C28.0839 13.5857 27.6643 13.1661 27.1269 13.0317L26.5 12.875V12.125L27.1269 11.9683C27.6643 11.8339 28.0839 11.4143 28.2183 10.8769L28.375 10.25H29.125L29.2817 10.8769C29.4161 11.4143 29.8357 11.8339 30.3731 11.9683Z" fill="#222222"/>
</g>
<path d="M39.5699 19.6372C38.3073 19.6372 37.0311 19.253 35.9606 18.4845C35.7273 18.3198 35.5627 18.0179 35.5627 17.6885C35.5627 17.1396 36.0018 16.7141 36.5507 16.7141C36.8252 16.7141 37.0173 16.8102 37.1546 16.9063C37.8819 17.4415 38.6779 17.7708 39.6111 17.7708C40.4756 17.7708 40.9971 17.4278 40.9971 16.8651V16.8377C40.9971 16.3024 40.6678 16.028 39.0621 15.6163C37.1271 15.1222 35.8783 14.587 35.8783 12.6795V12.652C35.8783 10.9091 37.2781 9.75638 39.2405 9.75638C40.407 9.75638 41.4226 10.0583 42.2871 10.6072C42.5204 10.7445 42.7537 11.0327 42.7537 11.4444C42.7537 11.9933 42.3146 12.4187 41.7656 12.4187C41.5598 12.4187 41.3951 12.3638 41.2304 12.2678C40.5305 11.8561 39.8718 11.6228 39.2131 11.6228C38.4034 11.6228 37.978 11.9933 37.978 12.4599V12.4873C37.978 13.1186 38.3897 13.3245 40.0502 13.7499C41.9989 14.2577 43.0968 14.9576 43.0968 16.6318V16.6593C43.0968 18.5668 41.6421 19.6372 39.5699 19.6372ZM44.2052 18.5943C44.2052 18.4433 44.2601 18.2923 44.3287 18.1414L47.6772 10.5798C47.9105 10.0583 48.3359 9.74265 48.9123 9.74265H49.0358C49.6122 9.74265 50.0239 10.0583 50.2572 10.5798L53.6057 18.1414C53.6743 18.2923 53.7155 18.4296 53.7155 18.5668C53.7155 19.1295 53.2764 19.5823 52.7137 19.5823C52.2197 19.5823 51.8903 19.2941 51.6982 18.855L51.0532 17.3454H46.8264L46.1539 18.9236C45.9755 19.3353 45.6187 19.5823 45.1796 19.5823C44.6306 19.5823 44.2052 19.1432 44.2052 18.5943ZM47.6086 15.479H50.2709L48.9398 12.3089L47.6086 15.479ZM55.3709 18.5531V10.8954C55.3709 10.3053 55.8375 9.83872 56.4276 9.83872H56.6609C57.1138 9.83872 57.4294 10.072 57.6215 10.3877L60.1741 14.5458L62.7404 10.3739C62.96 10.0171 63.2619 9.83872 63.6873 9.83872H63.9206C64.5107 9.83872 64.9773 10.3053 64.9773 10.8954V18.5256C64.9773 19.1157 64.5107 19.5823 63.9206 19.5823C63.3442 19.5823 62.8776 19.102 62.8776 18.5256V13.7362L61.025 16.5906C60.8054 16.92 60.5309 17.1258 60.1467 17.1258C59.7624 17.1258 59.4879 16.92 59.2684 16.5906L57.4431 13.7773V18.5531C57.4431 19.1295 56.9765 19.5823 56.4002 19.5823C55.8238 19.5823 55.3709 19.1295 55.3709 18.5531ZM67.2851 18.5256V10.9503C67.2851 10.3602 67.7517 9.89361 68.3418 9.89361H71.21C73.5018 9.89361 74.8878 11.2522 74.8878 13.2147V13.2421C74.8878 15.4653 73.1587 16.6181 71.0041 16.6181H69.3985V18.5256C69.3985 19.1157 68.9319 19.5823 68.3418 19.5823C67.7517 19.5823 67.2851 19.1157 67.2851 18.5256ZM69.3985 14.738H71.0727C72.1294 14.738 72.747 14.1067 72.747 13.2833V13.2558C72.747 12.3089 72.0883 11.8012 71.0316 11.8012H69.3985V14.738ZM76.4519 18.4433V10.868C76.4519 10.2779 76.9185 9.81127 77.5086 9.81127C78.0987 9.81127 78.5653 10.2779 78.5653 10.868V17.5787H82.4765C83.0117 17.5787 83.4371 18.0041 83.4371 18.5394C83.4371 19.0746 83.0117 19.5 82.4765 19.5H77.5086C76.9185 19.5 76.4519 19.0334 76.4519 18.4433ZM86.0053 19.5C85.4152 19.5 84.9486 19.0334 84.9486 18.4433V10.9503C84.9486 10.3602 85.4152 9.89361 86.0053 9.89361H91.33C91.8515 9.89361 92.2769 10.319 92.2769 10.8405C92.2769 11.362 91.8515 11.7737 91.33 11.7737H87.0483V13.7224H90.7124C91.2339 13.7224 91.6594 14.1479 91.6594 14.6694C91.6594 15.1908 91.2339 15.6026 90.7124 15.6026H87.0483V17.6199H91.3986C91.9201 17.6199 92.3455 18.0453 92.3455 18.5668C92.3455 19.0883 91.9201 19.5 91.3986 19.5H86.0053Z" fill="#2563EB"/>
<path d="M94.1422 18.4433V10.868C94.1422 10.2779 94.6088 9.81127 95.1989 9.81127C95.789 9.81127 96.2556 10.2779 96.2556 10.868V17.5787H100.167C100.702 17.5787 101.127 18.0041 101.127 18.5394C101.127 19.0746 100.702 19.5 100.167 19.5H95.1989C94.6088 19.5 94.1422 19.0334 94.1422 18.4433ZM106.755 19.6647C103.791 19.6647 101.664 17.4552 101.664 14.7243V14.6968C101.664 11.9658 103.819 9.72893 106.783 9.72893C109.747 9.72893 111.874 11.9384 111.874 14.6694V14.6968C111.874 17.4278 109.72 19.6647 106.755 19.6647ZM106.783 17.716C108.485 17.716 109.665 16.3711 109.665 14.7243V14.6968C109.665 13.05 108.457 11.6777 106.755 11.6777C105.054 11.6777 103.874 13.0225 103.874 14.6694V14.6968C103.874 16.3436 105.081 17.716 106.783 17.716ZM118.374 19.6647C115.382 19.6647 113.324 17.565 113.324 14.7243V14.6968C113.324 11.9658 115.451 9.72893 118.36 9.72893C119.815 9.72893 120.775 10.0583 121.64 10.6621C121.846 10.8131 122.079 11.1013 122.079 11.513C122.079 12.0894 121.613 12.556 121.036 12.556C120.734 12.556 120.542 12.4462 120.391 12.3364C119.815 11.9247 119.197 11.6777 118.291 11.6777C116.754 11.6777 115.533 13.0363 115.533 14.6694V14.6968C115.533 16.4534 116.741 17.7434 118.442 17.7434C119.211 17.7434 119.897 17.5513 120.432 17.167V15.7947H119.005C118.497 15.7947 118.086 15.3967 118.086 14.8889C118.086 14.3812 118.497 13.9695 119.005 13.9695H121.42C122.011 13.9695 122.477 14.4361 122.477 15.0262V17.3591C122.477 17.9767 122.244 18.4021 121.736 18.704C120.954 19.1844 119.815 19.6647 118.374 19.6647ZM129.177 19.6647C126.212 19.6647 124.085 17.4552 124.085 14.7243V14.6968C124.085 11.9658 126.24 9.72893 129.204 9.72893C132.168 9.72893 134.295 11.9384 134.295 14.6694V14.6968C134.295 17.4278 132.141 19.6647 129.177 19.6647ZM129.204 17.716C130.906 17.716 132.086 16.3711 132.086 14.7243V14.6968C132.086 13.05 130.878 11.6777 129.177 11.6777C127.475 11.6777 126.295 13.0225 126.295 14.6694V14.6968C126.295 16.3436 127.502 17.716 129.204 17.716Z" fill="#222222"/>
<defs>
<clipPath id="clip0_218_1987">
<rect width="18" height="18" fill="white" transform="translate(13 6.5)"/>
</clipPath>
</defs>
</svg>
