<svg width="18" height="18" viewBox="0 0 18 18" fill="none" xmlns="http://www.w3.org/2000/svg">
<path d="M7.3662 1.67847C6.97063 2.53699 6.75 3.49273 6.75 4.5C6.75 8.22795 9.77205 11.25 13.5 11.25C14.5072 11.25 15.463 11.0294 16.3215 10.6338C15.5758 13.9903 12.581 16.5 9 16.5C4.85786 16.5 1.5 13.1421 1.5 9C1.5 5.41899 4.00973 2.42416 7.3662 1.67847ZM13.6231 1.71828L14.25 1.875V2.625L13.6231 2.78172C13.0857 2.91607 12.6661 3.3357 12.5317 3.87313L12.375 4.5H11.625L11.4683 3.87313C11.3339 3.3357 10.9143 2.91607 10.3769 2.78172L9.75 2.625V1.875L10.3769 1.71828C10.9143 1.58393 11.3339 1.1643 11.4683 0.626872L11.625 0H12.375L12.5317 0.626872C12.6661 1.1643 13.0857 1.58393 13.6231 1.71828ZM17.3731 5.46828L18 5.625V6.375L17.3731 6.53172C16.8357 6.66607 16.4161 7.0857 16.2817 7.62315L16.125 8.25H15.375L15.2183 7.62315C15.0839 7.0857 14.6643 6.66607 14.1269 6.53172L13.5 6.375V5.625L14.1269 5.46828C14.6643 5.33392 15.0839 4.9143 15.2183 4.37687L15.375 3.75H16.125L16.2817 4.37687C16.4161 4.9143 16.8357 5.33392 17.3731 5.46828Z" fill="#222222"/>
</svg>
