<svg width="146" height="57" viewBox="0 0 146 57" fill="none" xmlns="http://www.w3.org/2000/svg">
<path d="M6.66 51.2C4.82 51.2 2.96 50.64 1.4 49.52C1.06 49.28 0.82 48.84 0.82 48.36C0.82 47.56 1.46 46.94 2.26 46.94C2.66 46.94 2.94 47.08 3.14 47.22C4.2 48 5.36 48.48 6.72 48.48C7.98 48.48 8.74 47.98 8.74 47.16V47.12C8.74 46.34 8.26 45.94 5.92 45.34C3.1 44.62 1.28 43.84 1.28 41.06V41.02C1.28 38.48 3.32 36.8 6.18 36.8C7.88 36.8 9.36 37.24 10.62 38.04C10.96 38.24 11.3 38.66 11.3 39.26C11.3 40.06 10.66 40.68 9.86 40.68C9.56 40.68 9.32 40.6 9.08 40.46C8.06 39.86 7.1 39.52 6.14 39.52C4.96 39.52 4.34 40.06 4.34 40.74V40.78C4.34 41.7 4.94 42 7.36 42.62C10.2 43.36 11.8 44.38 11.8 46.82V46.86C11.8 49.64 9.68 51.2 6.66 51.2ZM13.4153 49.68C13.4153 49.46 13.4953 49.24 13.5953 49.02L18.4753 38C18.8153 37.24 19.4353 36.78 20.2753 36.78H20.4553C21.2953 36.78 21.8953 37.24 22.2353 38L27.1153 49.02C27.2153 49.24 27.2753 49.44 27.2753 49.64C27.2753 50.46 26.6353 51.12 25.8153 51.12C25.0953 51.12 24.6153 50.7 24.3353 50.06L23.3953 47.86H17.2353L16.2553 50.16C15.9953 50.76 15.4753 51.12 14.8353 51.12C14.0353 51.12 13.4153 50.48 13.4153 49.68ZM18.3753 45.14H22.2553L20.3153 40.52L18.3753 45.14ZM29.6878 49.62V38.46C29.6878 37.6 30.3678 36.92 31.2278 36.92H31.5678C32.2278 36.92 32.6878 37.26 32.9678 37.72L36.6878 43.78L40.4278 37.7C40.7478 37.18 41.1878 36.92 41.8078 36.92H42.1478C43.0078 36.92 43.6878 37.6 43.6878 38.46V49.58C43.6878 50.44 43.0078 51.12 42.1478 51.12C41.3078 51.12 40.6278 50.42 40.6278 49.58V42.6L37.9278 46.76C37.6078 47.24 37.2078 47.54 36.6478 47.54C36.0878 47.54 35.6878 47.24 35.3678 46.76L32.7078 42.66V49.62C32.7078 50.46 32.0278 51.12 31.1878 51.12C30.3478 51.12 29.6878 50.46 29.6878 49.62ZM47.0511 49.58V38.54C47.0511 37.68 47.7311 37 48.5911 37H52.7711C56.1111 37 58.1311 38.98 58.1311 41.84V41.88C58.1311 45.12 55.6111 46.8 52.4711 46.8H50.1311V49.58C50.1311 50.44 49.4511 51.12 48.5911 51.12C47.7311 51.12 47.0511 50.44 47.0511 49.58ZM50.1311 44.06H52.5711C54.1111 44.06 55.0111 43.14 55.0111 41.94V41.9C55.0111 40.52 54.0511 39.78 52.5111 39.78H50.1311V44.06ZM60.4105 49.46V38.42C60.4105 37.56 61.0905 36.88 61.9505 36.88C62.8105 36.88 63.4905 37.56 63.4905 38.42V48.2H69.1905C69.9705 48.2 70.5905 48.82 70.5905 49.6C70.5905 50.38 69.9705 51 69.1905 51H61.9505C61.0905 51 60.4105 50.32 60.4105 49.46ZM74.3333 51C73.4733 51 72.7933 50.32 72.7933 49.46V38.54C72.7933 37.68 73.4733 37 74.3333 37H82.0933C82.8533 37 83.4733 37.62 83.4733 38.38C83.4733 39.14 82.8533 39.74 82.0933 39.74H75.8533V42.58H81.1933C81.9533 42.58 82.5733 43.2 82.5733 43.96C82.5733 44.72 81.9533 45.32 81.1933 45.32H75.8533V48.26H82.1933C82.9533 48.26 83.5733 48.88 83.5733 49.64C83.5733 50.4 82.9533 51 82.1933 51H74.3333Z" fill="#1E40AF"/>
<path d="M86.1917 49.46V38.42C86.1917 37.56 86.8717 36.88 87.7317 36.88C88.5917 36.88 89.2717 37.56 89.2717 38.42V48.2H94.9717C95.7517 48.2 96.3717 48.82 96.3717 49.6C96.3717 50.38 95.7517 51 94.9717 51H87.7317C86.8717 51 86.1917 50.32 86.1917 49.46ZM104.574 51.24C100.254 51.24 97.1538 48.02 97.1538 44.04V44C97.1538 40.02 100.294 36.76 104.614 36.76C108.934 36.76 112.034 39.98 112.034 43.96V44C112.034 47.98 108.894 51.24 104.574 51.24ZM104.614 48.4C107.094 48.4 108.814 46.44 108.814 44.04V44C108.814 41.6 107.054 39.6 104.574 39.6C102.094 39.6 100.374 41.56 100.374 43.96V44C100.374 46.4 102.134 48.4 104.614 48.4ZM121.506 51.24C117.146 51.24 114.146 48.18 114.146 44.04V44C114.146 40.02 117.246 36.76 121.486 36.76C123.606 36.76 125.006 37.24 126.266 38.12C126.566 38.34 126.906 38.76 126.906 39.36C126.906 40.2 126.226 40.88 125.386 40.88C124.946 40.88 124.666 40.72 124.446 40.56C123.606 39.96 122.706 39.6 121.386 39.6C119.146 39.6 117.366 41.58 117.366 43.96V44C117.366 46.56 119.126 48.44 121.606 48.44C122.726 48.44 123.726 48.16 124.506 47.6V45.6H122.426C121.686 45.6 121.086 45.02 121.086 44.28C121.086 43.54 121.686 42.94 122.426 42.94H125.946C126.806 42.94 127.486 43.62 127.486 44.48V47.88C127.486 48.78 127.146 49.4 126.406 49.84C125.266 50.54 123.606 51.24 121.506 51.24ZM137.25 51.24C132.93 51.24 129.83 48.02 129.83 44.04V44C129.83 40.02 132.97 36.76 137.29 36.76C141.61 36.76 144.71 39.98 144.71 43.96V44C144.71 47.98 141.57 51.24 137.25 51.24ZM137.29 48.4C139.77 48.4 141.49 46.44 141.49 44.04V44C141.49 41.6 139.73 39.6 137.25 39.6C134.77 39.6 133.05 41.56 133.05 43.96V44C133.05 46.4 134.81 48.4 137.29 48.4Z" fill="#222222"/>
<g clip-path="url(#clip0_191_83923)">
<path d="M70.8216 2.73796C70.2942 3.88265 70 5.15697 70 6.5C70 11.4706 74.0294 15.5 79 15.5C80.343 15.5 81.6174 15.2058 82.762 14.6784C81.7678 19.1537 77.7747 22.5 73 22.5C67.4771 22.5 63 18.0228 63 12.5C63 7.72532 66.3463 3.73221 70.8216 2.73796ZM79.1642 2.79104L80 3V4L79.1642 4.20896C78.4476 4.3881 77.8881 4.9476 77.709 5.66417L77.5 6.5H76.5L76.291 5.66417C76.1119 4.9476 75.5524 4.3881 74.8358 4.20896L74 4V3L74.8358 2.79104C75.5524 2.6119 76.1119 2.0524 76.291 1.33583L76.5 0.5H77.5L77.709 1.33583C77.8881 2.0524 78.4476 2.6119 79.1642 2.79104ZM84.1642 7.79104L85 8V9L84.1642 9.20896C83.4476 9.3881 82.8881 9.9476 82.709 10.6642L82.5 11.5H81.5L81.291 10.6642C81.1119 9.9476 80.5524 9.3881 79.8358 9.20896L79 9V8L79.8358 7.79104C80.5524 7.6119 81.1119 7.0524 81.291 6.33583L81.5 5.5H82.5L82.709 6.33583C82.8881 7.0524 83.4476 7.6119 84.1642 7.79104Z" fill="#222222"/>
</g>
<defs>
<clipPath id="clip0_191_83923">
<rect width="24" height="24" fill="white" transform="translate(61 0.5)"/>
</clipPath>
</defs>
</svg>
