<svg width="28" height="28" viewBox="0 0 28 28" fill="none" xmlns="http://www.w3.org/2000/svg">
    <path d="M23.335 5.833v16.333c0 .644-.522 1.167-1.166 1.167H5.836a1.167 1.167 0 0 1-1.167-1.167V5.833c0-.644.523-1.167 1.167-1.167h16.333c.644 0 1.166.523 1.166 1.167z" fill="#FDF7F8" stroke="#FFC3CF" stroke-width="1.5" stroke-linecap="round" stroke-linejoin="round"/>
    <path d="M18.669 4.666v18.667m-14-1.167V5.833c0-.644.523-1.167 1.167-1.167h16.333c.644 0 1.166.523 1.166 1.167v16.333c0 .644-.522 1.167-1.166 1.167H5.836a1.167 1.167 0 0 1-1.167-1.167z" stroke="#FE889F" stroke-width="1.5" stroke-linecap="round" stroke-linejoin="round"/>
    <path d="M10.309 11.121 13.187 14l-2.878 2.878" stroke="#FE889F" stroke-width="1.5" stroke-linecap="round" stroke-linejoin="round"/>
</svg>
