<svg width="50" height="48" viewBox="0 0 50 48" fill="none" xmlns="http://www.w3.org/2000/svg">
    <path d="M.5 24C.5 11.021 11.021.5 24 .5h25.5v47H24C11.021 47.5.5 36.979.5 24z" fill="#fff" fill-opacity=".8"/>
    <path d="M.5 24C.5 11.021 11.021.5 24 .5h25.5v47H24C11.021 47.5.5 36.979.5 24z" stroke="#60A5FA"/>
    <path d="M35.333 15.834v16.333c0 .644-.522 1.167-1.167 1.167H17.833a1.167 1.167 0 0 1-1.167-1.167V15.834c0-.645.523-1.167 1.167-1.167h16.333c.645 0 1.167.522 1.167 1.167z" fill="#F7FAFD"/>
    <path d="M30.666 14.667v18.667m-14-1.167V15.834c0-.645.523-1.167 1.167-1.167h16.333c.645 0 1.167.522 1.167 1.167v16.333c0 .644-.522 1.167-1.167 1.167H17.833a1.167 1.167 0 0 1-1.167-1.167z" stroke="#60A5FA" stroke-width="1.5" stroke-linecap="round" stroke-linejoin="round"/>
    <path d="M25.188 21.122 22.31 24l2.878 2.879" stroke="#60A5FA" stroke-width="1.5" stroke-linecap="round" stroke-linejoin="round"/>
</svg>
