<svg width="16" height="16" viewBox="0 0 16 16" fill="none" xmlns="http://www.w3.org/2000/svg">
    <path d="M3.33 8H2l6-6 6 6h-1.33" fill="#999"/>
    <path d="M3.33 8H2l6-6 6 6h-1.33M3.328 8v4.67A1.333 1.333 0 0 0 4.658 14h6.67a1.333 1.333 0 0 0 1.33-1.33V8" stroke="#999" stroke-width="1.5" stroke-linecap="round" stroke-linejoin="round"/>
    <path d="M7.998 8A1.33 1.33 0 1 1 8 10.659 1.33 1.33 0 0 1 8 8h-4.67v4.67A1.333 1.333 0 0 0 4.658 14h6.67a1.333 1.333 0 0 0 1.33-1.33V8h-4.66z" fill="#999"/>
</svg>
