<svg width="16" height="16" viewBox="0 0 16 16" fill="none" xmlns="http://www.w3.org/2000/svg">
    <g clip-path="url(#8c6uvr33ha)">
        <path d="M.668 3.334c0-.369.298-.667.667-.667h13.333c.368 0 .667.298.667.667v9.333a.667.667 0 0 1-.667.667H1.335a.667.667 0 0 1-.667-.667V3.334zm8 2v1.333h4V5.334h-4zM12.001 8H8.668v1.334h3.333V8zm-5-1.333a1.667 1.667 0 1 0-3.333 0 1.667 1.667 0 0 0 3.333 0zM5.335 9A2.333 2.333 0 0 0 3 11.334h4.667A2.333 2.333 0 0 0 5.335 9z" fill="#60A5FA"/>
    </g>
    <defs>
        <clipPath id="8c6uvr33ha">
            <path fill="#fff" d="M0 0h16v16H0z"/>
        </clipPath>
    </defs>
</svg>
