<svg width="66" height="34" viewBox="0 0 66 34" fill="none" xmlns="http://www.w3.org/2000/svg">
<rect x="0.5" y="5.3252" width="65" height="23" rx="11.5" fill="white"/>
<rect x="0.5" y="5.3252" width="65" height="23" rx="11.5" stroke="#5D83CA"/>
<g clip-path="url(#clip0_55_40749)">
<path d="M54.7348 23.4953H43.2548C42.6448 23.4953 42.0648 23.2453 41.6348 22.8053C41.2048 22.3653 40.9648 21.7553 40.9648 21.1253V4.52527C40.9648 3.89527 41.2048 3.29527 41.6348 2.84527C42.0648 2.40527 42.6448 2.15527 43.2548 2.15527H51.2848L57.0248 8.08527V21.1253C57.0248 21.7553 56.7848 22.3553 56.3548 22.8053C55.9248 23.2453 55.3448 23.4953 54.7348 23.4953Z" fill="#F7FAFD" stroke="#5D83CA" stroke-width="1.5" stroke-linecap="round" stroke-linejoin="round"/>
<path d="M51.2969 2.15527V6.89527C51.2969 7.20527 51.4169 7.51527 51.6369 7.73527C51.8569 7.95527 52.1469 8.08527 52.4469 8.08527H57.0369L51.2969 2.15527Z" fill="white" stroke="#5D83CA" stroke-width="1.5" stroke-linecap="round" stroke-linejoin="round"/>
<path d="M46.4961 19.2656H51.4961" stroke="#5D83CA" stroke-width="1.5" stroke-linecap="round" stroke-linejoin="round"/>
<path d="M46.6562 14.0752L48.9962 16.4952L51.3362 14.0752" stroke="#5D83CA" stroke-width="1.5" stroke-linecap="round" stroke-linejoin="round"/>
<path d="M48.9961 10.6855V16.4955" stroke="#5D83CA" stroke-width="1.5" stroke-linecap="round" stroke-linejoin="round"/>
</g>
<path d="M10.8506 21.8252V12.6338H14.3037C16.4111 12.6338 17.5347 13.916 17.541 15.6807C17.5347 17.439 16.3984 18.7148 14.2783 18.7148H12.501V21.8252H10.8506ZM12.501 17.3564H14.0498C15.2939 17.3501 15.8525 16.6519 15.8525 15.6807C15.8525 14.6968 15.2939 14.0176 14.0498 14.0176H12.501V17.3564ZM21.8931 21.8252H18.77V12.6338H21.9439C24.686 12.6338 26.3428 14.354 26.3491 17.2168C26.3428 20.0923 24.686 21.8252 21.8931 21.8252ZM20.4204 20.3906H21.8042C23.7275 20.397 24.6987 19.3369 24.6987 17.2168C24.6987 15.1094 23.7275 14.062 21.855 14.0684H20.4204V20.3906ZM27.7051 21.8252V12.6338H33.5957V14.0176H29.3555V16.5312H33.1895V17.915H29.3555V21.8252H27.7051Z" fill="#5D83CA"/>
<defs>
<clipPath id="clip0_55_40749">
<rect width="18" height="24" fill="white" transform="translate(40 0.825195)"/>
</clipPath>
</defs>
</svg>
