<svg width="1920" height="1080" viewBox="0 0 1920 1080" fill="none" xmlns="http://www.w3.org/2000/svg">
<g clip-path="url(#clip0_191_83902)">
<rect width="1920" height="1080" fill="#F7FAFD"/>
<path d="M274.461 449.997C277.774 449.997 280.479 452.689 280.29 455.997C277.182 510.643 231.883 553.997 176.461 553.997C121.039 553.997 75.7403 510.643 72.6318 455.997C72.4436 452.689 75.1479 449.997 78.4616 449.997L274.461 449.997Z" fill="url(#paint0_linear_191_83902)"/>
<circle cx="1648.59" cy="322.603" r="305.396" fill="url(#paint1_linear_191_83902)"/>
<circle cx="1731" cy="1065" r="225" stroke="url(#paint2_linear_191_83902)" stroke-width="70"/>
<circle cx="228.039" cy="1094.09" r="438.021" fill="url(#paint3_linear_191_83902)"/>
<path opacity="0.8" d="M1503 -195.281C1503 -198.595 1505.71 -201.288 1509.02 -201.214C1652.32 -198.014 1767.5 -80.8458 1767.5 63.2187C1767.5 207.283 1652.32 324.452 1509.02 327.652C1505.71 327.726 1503 325.032 1503 321.719L1503 -195.281Z" fill="url(#paint4_linear_191_83902)"/>
<circle cx="361.106" cy="44" r="219" fill="url(#paint5_linear_191_83902)"/>
<circle opacity="0.8" cx="504.283" cy="802.819" r="223.823" fill="url(#paint6_linear_191_83902)"/>
<circle cx="1460.5" cy="837.496" r="42.5" fill="url(#paint7_linear_191_83902)"/>
</g>
<defs>
<linearGradient id="paint0_linear_191_83902" x1="179.643" y1="510.759" x2="204.789" y2="572.468" gradientUnits="userSpaceOnUse">
<stop stop-color="#DBEAFE"/>
<stop offset="1" stop-color="#BFDBFE"/>
</linearGradient>
<linearGradient id="paint1_linear_191_83902" x1="1657.93" y1="374.067" x2="1864.88" y2="628" gradientUnits="userSpaceOnUse">
<stop stop-color="#DBEAFE"/>
<stop offset="1" stop-color="#BFDBFE"/>
</linearGradient>
<linearGradient id="paint2_linear_191_83902" x1="1738.95" y1="1108.81" x2="1915.14" y2="1325" gradientUnits="userSpaceOnUse">
<stop stop-color="#DBEAFE"/>
<stop offset="1" stop-color="#BFDBFE"/>
</linearGradient>
<linearGradient id="paint3_linear_191_83902" x1="484.705" y1="704.115" x2="184.418" y2="1004.4" gradientUnits="userSpaceOnUse">
<stop stop-color="#93C5FD"/>
<stop offset="1" stop-color="#BFDBFE"/>
</linearGradient>
<linearGradient id="paint4_linear_191_83902" x1="1517.51" y1="-91.7702" x2="1662.57" y2="-19.2385" gradientUnits="userSpaceOnUse">
<stop stop-color="#93C5FD"/>
<stop offset="1" stop-color="#BFDBFE"/>
</linearGradient>
<linearGradient id="paint5_linear_191_83902" x1="367.806" y1="80.9045" x2="516.212" y2="263" gradientUnits="userSpaceOnUse">
<stop stop-color="#DBEAFE"/>
<stop offset="1" stop-color="#BFDBFE"/>
</linearGradient>
<linearGradient id="paint6_linear_191_83902" x1="511.131" y1="840.536" x2="662.805" y2="1026.64" gradientUnits="userSpaceOnUse">
<stop stop-color="#DBEAFE"/>
<stop offset="1" stop-color="#BFDBFE"/>
</linearGradient>
<linearGradient id="paint7_linear_191_83902" x1="1461.8" y1="844.658" x2="1490.6" y2="879.996" gradientUnits="userSpaceOnUse">
<stop stop-color="#DBEAFE"/>
<stop offset="1" stop-color="#BFDBFE"/>
</linearGradient>
<clipPath id="clip0_191_83902">
<rect width="1920" height="1080" fill="white"/>
</clipPath>
</defs>
</svg>
